<svg xmlns="http://www.w3.org/2000/svg" version="1.1" xmlns:xlink="http://www.w3.org/1999/xlink" xmlns:svgjs="http://svgjs.dev/svgjs" width="2000" height="560" preserveAspectRatio="none" viewBox="0 0 2000 560"><g mask="url(&quot;#SvgjsMask1345&quot;)" fill="none"><path d="M0 462.32L10 426.35L20 488.18L30 474.1L40 454.92L50 501.5L60 505.04L70 480.96L80 473.92L90 423.39L100 440.7L110 379.21L120 397.97L130 433.36L140 484.3L150 468.44L160 516.39L170 487.9L180 505.53L190 521.45L200 532.65L210 497.15L220 442.46L230 408.48L240 346.88L250 350.94L260 361.32L270 372.06L280 422.24L290 356.51L300 403.16L310 431.4L320 386.32L330 412.62L340 456.73L350 467.19L360 477.15L370 490.45L380 531.91L390 493.3L400 472.45L410 434.23L420 455.13L430 408.79L440 453.47L450 456.21L460 500.48L470 557.91L480 524.97L490 464.99L500 400.6L510 426.46L520 460.3L530 437.48L540 462.11L550 397.13L560 341.42L570 297.99L580 308.64L590 259.14L600 307.3L610 299.02L620 294.49L630 287.42L640 295.58L650 237.94L660 229.12L670 185.19L680 143.17L690 191.07L700 213.49L710 199.41L720 193.28L730 134.65L740 136.53L750 109.27L760 108.7L770 56.21L780 107.04L790 46.8L800 83.47L810 68.78L820 43.88L830 41.24L840 107.63L850 50.09L860 81.38L870 54.22L880 106.38L890 88.66L900 95.48L910 116.67L920 144.78L930 145.27L940 113.37L950 172.72L960 231.21L970 235.12L980 172.38L990 160.68L1000 227.59L1010 190.96L1020 247.64L1030 266.23L1040 221.77L1050 285.8L1060 320.42L1070 282.51L1080 269.82L1090 259.46L1100 206.94L1110 161.91L1120 141.04L1130 169.38L1140 128.23L1150 98.39L1160 58.24L1170 118.53L1180 85.07L1190 66.28L1200 76.24L1210 133.55L1220 89.43L1230 116.97L1240 104.01L1250 68.44L1260 85.41L1270 130.76L1280 171.53L1290 156.89L1300 127.19L1310 106.31L1320 60.27L1330 78.26L1340 92.1L1350 83.6L1360 63.73L1370 0.65L1380 27.63L1390 19.21L1400 11.82L1410 8.31L1420 20.76L1430 31.51L1440 47.43L1450 32.46L1460 42.17L1470 101.14L1480 76.37L1490 36.05L1500 14.24L1510 16.03L1520 46.91L1530 16.2L1540 20L1550 48.35L1560 97.88L1570 30.51L1580 32L1590 27.82L1600 41.63L1610 48.51L1620 96.14L1630 147.58L1640 204.2L1650 150.79L1660 161.71L1670 190.99L1680 249.94L1690 202.56L1700 133.93L1710 100.8L1720 97.67L1730 140.37L1740 76.96L1750 146.36L1760 192.6L1770 193.42L1780 171.91L1790 236.16L1800 240.87L1810 256.68L1820 284.57L1830 248.78L1840 239.34L1850 256.79L1860 246.33L1870 243.71L1880 230.25L1890 287.63L1900 294.32L1910 343.01L1920 380.57L1930 413.8L1940 474.32L1950 450.68L1960 480.22L1970 464.79L1980 435.14L1990 382.4L2000 420.99" stroke="rgba(0, 109, 255, 1)" stroke-width="2"></path><path d="M0 462.32L10 426.35L20 488.18L30 474.1L40 454.92L50 501.5L60 505.04L70 480.96L80 473.92L90 423.39L100 440.7L110 379.21L120 397.97L130 433.36L140 484.3L150 468.44L160 516.39L170 487.9L180 505.53L190 521.45L200 532.65L210 497.15L220 442.46L230 408.48L240 346.88L250 350.94L260 361.32L270 372.06L280 422.24L290 356.51L300 403.16L310 431.4L320 386.32L330 412.62L340 456.73L350 467.19L360 477.15L370 490.45L380 531.91L390 493.3L400 472.45L410 434.23L420 455.13L430 408.79L440 453.47L450 456.21L460 500.48L470 557.91L480 524.97L490 464.99L500 400.6L510 426.46L520 460.3L530 437.48L540 462.11L550 397.13L560 341.42L570 297.99L580 308.64L590 259.14L600 307.3L610 299.02L620 294.49L630 287.42L640 295.58L650 237.94L660 229.12L670 185.19L680 143.17L690 191.07L700 213.49L710 199.41L720 193.28L730 134.65L740 136.53L750 109.27L760 108.7L770 56.21L780 107.04L790 46.8L800 83.47L810 68.78L820 43.88L830 41.24L840 107.63L850 50.09L860 81.38L870 54.22L880 106.38L890 88.66L900 95.48L910 116.67L920 144.78L930 145.27L940 113.37L950 172.72L960 231.21L970 235.12L980 172.38L990 160.68L1000 227.59L1010 190.96L1020 247.64L1030 266.23L1040 221.77L1050 285.8L1060 320.42L1070 282.51L1080 269.82L1090 259.46L1100 206.94L1110 161.91L1120 141.04L1130 169.38L1140 128.23L1150 98.39L1160 58.24L1170 118.53L1180 85.07L1190 66.28L1200 76.24L1210 133.55L1220 89.43L1230 116.97L1240 104.01L1250 68.44L1260 85.41L1270 130.76L1280 171.53L1290 156.89L1300 127.19L1310 106.31L1320 60.27L1330 78.26L1340 92.1L1350 83.6L1360 63.73L1370 0.65L1380 27.63L1390 19.21L1400 11.82L1410 8.31L1420 20.76L1430 31.51L1440 47.43L1450 32.46L1460 42.17L1470 101.14L1480 76.37L1490 36.05L1500 14.24L1510 16.03L1520 46.91L1530 16.2L1540 20L1550 48.35L1560 97.88L1570 30.51L1580 32L1590 27.82L1600 41.63L1610 48.51L1620 96.14L1630 147.58L1640 204.2L1650 150.79L1660 161.71L1670 190.99L1680 249.94L1690 202.56L1700 133.93L1710 100.8L1720 97.67L1730 140.37L1740 76.96L1750 146.36L1760 192.6L1770 193.42L1780 171.91L1790 236.16L1800 240.87L1810 256.68L1820 284.57L1830 248.78L1840 239.34L1850 256.79L1860 246.33L1870 243.71L1880 230.25L1890 287.63L1900 294.32L1910 343.01L1920 380.57L1930 413.8L1940 474.32L1950 450.68L1960 480.22L1970 464.79L1980 435.14L1990 382.4L2000 420.99L2000 560L0 560z" fill="url(&quot;#SvgjsLinearGradient1346&quot;)"></path></g><defs><mask id="SvgjsMask1345"><rect width="2000" height="560" fill="#ffffff"></rect></mask><linearGradient x1="50%" y1="0%" x2="50%" y2="100%" id="SvgjsLinearGradient1346"><stop stop-opacity="0.65" stop-color="rgba(0, 109, 255, 1)" offset="0"></stop><stop stop-opacity="0" stop-color="#e0eeff" offset="0.8"></stop></linearGradient></defs></svg>